<?xml version="1.0" encoding="utf-8"?>
<!-- Generator: Adobe Illustrator 24.1.1, SVG Export Plug-In . SVG Version: 6.00 Build 0)  -->
<svg version="1.1" id="Calque_1" xmlns="http://www.w3.org/2000/svg" xmlns:xlink="http://www.w3.org/1999/xlink" x="0px" y="0px"
	 viewBox="0 0 612 792" style="enable-background:new 0 0 612 792;" xml:space="preserve">
<style type="text/css">
	.st0{fill:none;}
	.st1{fill:url(#SVGID_1_);}
	.st2{fill:url(#SVGID_2_);}
	.st3{fill:url(#SVGID_3_);}
	.st4{fill:url(#SVGID_4_);}
	.st5{fill:url(#SVGID_5_);}
	.st6{fill:url(#SVGID_6_);}
	.st7{fill:url(#SVGID_7_);}
	.st8{fill:url(#SVGID_8_);}
	.st9{fill:url(#SVGID_9_);}
	.st10{fill:url(#SVGID_10_);}
	.st11{fill:url(#SVGID_11_);}
	.st12{fill:url(#SVGID_12_);}
	.st13{fill:url(#SVGID_13_);}
	.st14{fill:url(#SVGID_14_);}
	.st15{fill:url(#SVGID_15_);}
	.st16{fill:url(#SVGID_16_);}
	.st17{fill:url(#SVGID_17_);}
	.st18{fill:url(#SVGID_18_);}
	.st19{fill:url(#SVGID_19_);}
	.st20{fill:url(#SVGID_20_);}
	.st21{fill:url(#SVGID_21_);}
	.st22{fill:url(#SVGID_22_);}
	.st23{fill:url(#SVGID_23_);}
	.st24{fill:url(#SVGID_24_);}
	.st25{fill:url(#SVGID_25_);}
	.st26{fill:url(#SVGID_26_);}
	.st27{fill:url(#SVGID_27_);}
	.st28{fill:url(#SVGID_28_);}
	.st29{fill:url(#SVGID_29_);}
	.st30{fill:url(#SVGID_30_);}
	.st31{fill:url(#SVGID_31_);}
	.st32{fill:url(#SVGID_32_);}
	.st33{fill:url(#SVGID_33_);}
	.st34{fill:url(#SVGID_34_);}
	.st35{fill:url(#SVGID_35_);}
	.st36{fill:url(#SVGID_36_);}
	.st37{fill:url(#SVGID_37_);}
	.st38{fill:url(#SVGID_38_);}
	.st39{fill:url(#SVGID_39_);}
	.st40{fill:url(#SVGID_40_);}
	.st41{fill:url(#SVGID_41_);}
	.st42{fill:url(#SVGID_42_);}
	.st43{fill:url(#SVGID_43_);}
	.st44{fill:url(#SVGID_44_);}
	.st45{fill:url(#SVGID_45_);}
	.st46{fill:url(#SVGID_46_);}
	.st47{fill:url(#SVGID_47_);}
	.st48{fill:url(#SVGID_48_);}
	.st49{fill:url(#SVGID_49_);}
	.st50{fill:url(#SVGID_50_);}
	.st51{fill:url(#SVGID_51_);}
	.st52{fill:url(#SVGID_52_);}
	.st53{fill:url(#SVGID_53_);}
	.st54{fill:url(#SVGID_54_);}
	.st55{fill:url(#SVGID_55_);}
	.st56{fill:url(#SVGID_56_);}
	.st57{fill:url(#SVGID_57_);}
	.st58{fill:url(#SVGID_58_);}
	.st59{fill:url(#SVGID_59_);}
	.st60{fill:url(#SVGID_60_);}
	.st61{stroke:#FF8800;}
	.st62{stroke:#3399FF;}
</style>
<desc>Created with Snap</desc>
<g transform="matrix(1,0,0,1,376,372)">
	<polygon points="0,0 0,0 0,0 	"/>
</g>
<g transform="matrix(1,0,0,1,381.5,377)">
	<rect class="st0" width="103" height="28"/>
	<desc>Created with Snap</desc>
	<g>
		
			<linearGradient id="SVGID_1_" gradientUnits="userSpaceOnUse" x1="-381.5" y1="414.5" x2="-380.5" y2="414.5" gradientTransform="matrix(93.342 0 0 -18.3812 35614.9727 7633.188)">
			<stop  offset="0" style="stop-color:#083B66"/>
			<stop  offset="1" style="stop-color:#083B66"/>
		</linearGradient>
		<path class="st1" d="M80.2,6.4c6.5,0,12.7,1,18.1,2.9c-10.3,0-32.2,1-46.3,14.1C35.4,12.1,23.9,6.8,5,9.1
			c12-6.9,34.7-4.9,46.4,5.4C58.8,9.5,69,6.4,80.2,6.4L80.2,6.4z"/>
	</g>
</g>
<g transform="matrix(1,0,0,1,414,337)">
	<rect class="st0" width="10" height="20"/>
	<desc>Created with Snap</desc>
	<g>
		
			<linearGradient id="SVGID_2_" gradientUnits="userSpaceOnUse" x1="-414" y1="454.5" x2="-413" y2="454.5" gradientTransform="matrix(0.703 0 0 -10.321 296.0416 4701.0552)">
			<stop  offset="0" style="stop-color:#F0A418"/>
			<stop  offset="1" style="stop-color:#F0A418"/>
		</linearGradient>
		<polygon class="st2" points="5.4,15.3 5.7,13.5 5.4,5 5,13.5 		"/>
	</g>
</g>
<g transform="matrix(1,0,0,1,385.5,348.5)">
	<rect class="st0" width="67" height="45"/>
	<desc>Created with Snap</desc>
	<g>
		
			<linearGradient id="SVGID_3_" gradientUnits="userSpaceOnUse" x1="-385.5" y1="443" x2="-384.5" y2="443" gradientTransform="matrix(57.713 0 0 -35.797 22253.3613 15880.9697)">
			<stop  offset="0" style="stop-color:#EC4C4C"/>
			<stop  offset="1" style="stop-color:#EC4C4C"/>
		</linearGradient>
		<path class="st3" d="M33.9,5c15.9,0,28.9,12.9,28.9,28.9l0,0.3c-6.1,1.4-11.6,3.7-16,6.7C36.4,31.7,17.5,29.1,5,33.3
			C5.3,17.6,18.1,5,33.9,5L33.9,5z"/>
	</g>
</g>
<g transform="matrix(1,0,0,1,376,377)">
	<rect class="st0" width="12" height="10"/>
	<desc>Created with Snap</desc>
	<g>
		
			<linearGradient id="SVGID_4_" gradientUnits="userSpaceOnUse" x1="-376" y1="414.5" x2="-375" y2="414.5" gradientTransform="matrix(2.034 0 0 -0.404 769.784 172.6597)">
			<stop  offset="0" style="stop-color:#F0A418"/>
			<stop  offset="1" style="stop-color:#F0A418"/>
		</linearGradient>
		<polygon class="st4" points="7,5.2 6,5 5,5.2 6,5.4 		"/>
	</g>
</g>
<g transform="matrix(1,0,0,1,378.5,377)">
	<rect class="st0" width="15" height="10"/>
	<desc>Created with Snap</desc>
	<g>
		
			<linearGradient id="SVGID_5_" gradientUnits="userSpaceOnUse" x1="-378.5" y1="414.5" x2="-377.5" y2="414.5" gradientTransform="matrix(5.937 0 0 -0.408 2252.1545 174.3204)">
			<stop  offset="0" style="stop-color:#F0A418"/>
			<stop  offset="1" style="stop-color:#F0A418"/>
		</linearGradient>
		<polygon class="st5" points="10.9,5.2 9.9,5 5,5.1 9.9,5.4 		"/>
	</g>
</g>
<g transform="matrix(1,0,0,1,406,338)">
	<rect class="st0" width="12" height="20"/>
	<desc>Created with Snap</desc>
	<g>
		
			<linearGradient id="SVGID_6_" gradientUnits="userSpaceOnUse" x1="-406" y1="453.5" x2="-405" y2="453.5" gradientTransform="matrix(2.144 0 0 -10.096 875.4636 4588.584)">
			<stop  offset="0" style="stop-color:#F0A418"/>
			<stop  offset="1" style="stop-color:#F0A418"/>
		</linearGradient>
		<polygon class="st6" points="7.1,15.1 7.1,13.3 5,5 6.4,13.4 		"/>
	</g>
</g>
<g transform="matrix(1,0,0,1,410,339)">
	<rect class="st0" width="10" height="12"/>
	<desc>Created with Snap</desc>
	<g>
		
			<linearGradient id="SVGID_7_" gradientUnits="userSpaceOnUse" x1="-410" y1="452.5" x2="-409" y2="452.5" gradientTransform="matrix(0.401 0 0 -2.016 169.4104 918.2481)">
			<stop  offset="0" style="stop-color:#F0A418"/>
			<stop  offset="1" style="stop-color:#F0A418"/>
		</linearGradient>
		<polygon class="st7" points="5.3,7 5.4,6 5.1,5 5,6 		"/>
	</g>
</g>
<g transform="matrix(1,0,0,1,411,342.5)">
	<rect class="st0" width="10" height="15"/>
	<desc>Created with Snap</desc>
	<g>
		
			<linearGradient id="SVGID_8_" gradientUnits="userSpaceOnUse" x1="-411" y1="449" x2="-410" y2="449" gradientTransform="matrix(0.817 0 0 -5.891 340.786 2653.0044)">
			<stop  offset="0" style="stop-color:#F0A418"/>
			<stop  offset="1" style="stop-color:#F0A418"/>
		</linearGradient>
		<polygon class="st8" points="5.7,10.9 5.8,9.8 5,5 5.4,9.9 		"/>
	</g>
</g>
<g transform="matrix(1,0,0,1,399.5,340.5)">
	<rect class="st0" width="13" height="19"/>
	<desc>Created with Snap</desc>
	<g>
		
			<linearGradient id="SVGID_9_" gradientUnits="userSpaceOnUse" x1="-399.5" y1="451" x2="-398.5" y2="451" gradientTransform="matrix(3.905 0 0 -9.555 1565.0477 4319.0825)">
			<stop  offset="0" style="stop-color:#F0A418"/>
			<stop  offset="1" style="stop-color:#F0A418"/>
		</linearGradient>
		<polygon class="st9" points="8.9,14.6 8.6,12.8 5,5 7.9,13 		"/>
	</g>
</g>
<g transform="matrix(1,0,0,1,404,341.5)">
	<rect class="st0" width="10" height="11"/>
	<desc>Created with Snap</desc>
	<g>
		
			<linearGradient id="SVGID_10_" gradientUnits="userSpaceOnUse" x1="-404" y1="450" x2="-403" y2="450" gradientTransform="matrix(0.606 0 0 -1.94 249.8236 878.97)">
			<stop  offset="0" style="stop-color:#F0A418"/>
			<stop  offset="1" style="stop-color:#F0A418"/>
		</linearGradient>
		<polygon class="st10" points="5.6,6.9 5.5,5.9 5,5 5.1,6 		"/>
	</g>
</g>
<g transform="matrix(1,0,0,1,404.5,343.5)">
	<rect class="st0" width="11" height="15"/>
	<desc>Created with Snap</desc>
	<g>
		
			<linearGradient id="SVGID_11_" gradientUnits="userSpaceOnUse" x1="-404.5" y1="448" x2="-403.5" y2="448" gradientTransform="matrix(1.781 0 0 -5.664 725.4146 2545.304)">
			<stop  offset="0" style="stop-color:#F0A418"/>
			<stop  offset="1" style="stop-color:#F0A418"/>
		</linearGradient>
		<polygon class="st11" points="6.8,10.7 6.7,9.6 5,5 6.3,9.7 		"/>
	</g>
</g>
<g transform="matrix(1,0,0,1,393.5,344)">
	<rect class="st0" width="15" height="18"/>
	<desc>Created with Snap</desc>
	<g>
		
			<linearGradient id="SVGID_12_" gradientUnits="userSpaceOnUse" x1="-393.5" y1="447.5" x2="-392.5" y2="447.5" gradientTransform="matrix(5.539 0 0 -8.709 2184.5972 3906.6318)">
			<stop  offset="0" style="stop-color:#F0A418"/>
			<stop  offset="1" style="stop-color:#F0A418"/>
		</linearGradient>
		<polygon class="st12" points="10.5,13.7 9.9,12 5,5 9.3,12.4 		"/>
	</g>
</g>
<g transform="matrix(1,0,0,1,397,343.5)">
	<rect class="st0" width="10" height="11"/>
	<desc>Created with Snap</desc>
	<g>
		
			<linearGradient id="SVGID_13_" gradientUnits="userSpaceOnUse" x1="-397" y1="448" x2="-396" y2="448" gradientTransform="matrix(0.941 0 0 -1.801 378.577 812.7484)">
			<stop  offset="0" style="stop-color:#F0A418"/>
			<stop  offset="1" style="stop-color:#F0A418"/>
		</linearGradient>
		<polygon class="st13" points="5.9,6.8 5.6,5.8 5,5 5.3,6 		"/>
	</g>
</g>
<g transform="matrix(1,0,0,1,398,345.5)">
	<rect class="st0" width="12" height="15"/>
	<desc>Created with Snap</desc>
	<g>
		
			<linearGradient id="SVGID_14_" gradientUnits="userSpaceOnUse" x1="-398" y1="446" x2="-397" y2="446" gradientTransform="matrix(2.757 0 0 -5.26 1102.286 2353.5896)">
			<stop  offset="0" style="stop-color:#F0A418"/>
			<stop  offset="1" style="stop-color:#F0A418"/>
		</linearGradient>
		<polygon class="st14" points="7.8,10.3 7.5,9.3 5,5 7.1,9.4 		"/>
	</g>
</g>
<g transform="matrix(1,0,0,1,387.5,348.5)">
	<rect class="st0" width="17" height="17"/>
	<desc>Created with Snap</desc>
	<g>
		
			<linearGradient id="SVGID_15_" gradientUnits="userSpaceOnUse" x1="-387.5" y1="443" x2="-386.5" y2="443" gradientTransform="matrix(7 0 0 -7.586 2717.5005 3369.3909)">
			<stop  offset="0" style="stop-color:#F0A418"/>
			<stop  offset="1" style="stop-color:#F0A418"/>
		</linearGradient>
		<polygon class="st15" points="12,12.6 11,11 5,5 10.5,11.5 		"/>
	</g>
</g>
<g transform="matrix(1,0,0,1,391.5,347.5)">
	<rect class="st0" width="11" height="11"/>
	<desc>Created with Snap</desc>
	<g>
		
			<linearGradient id="SVGID_16_" gradientUnits="userSpaceOnUse" x1="-391.5" y1="444" x2="-390.5" y2="444" gradientTransform="matrix(1.245 0 0 -1.605 492.4171 718.4227)">
			<stop  offset="0" style="stop-color:#F0A418"/>
			<stop  offset="1" style="stop-color:#F0A418"/>
		</linearGradient>
		<polygon class="st16" points="6.2,6.6 5.8,5.7 5,5 5.5,5.9 		"/>
	</g>
</g>
<g transform="matrix(1,0,0,1,392.5,349)">
	<rect class="st0" width="13" height="14"/>
	<desc>Created with Snap</desc>
	<g>
		
			<linearGradient id="SVGID_17_" gradientUnits="userSpaceOnUse" x1="-392.5" y1="442.5" x2="-391.5" y2="442.5" gradientTransform="matrix(3.648 0 0 -4.685 1436.8395 2080.4551)">
			<stop  offset="0" style="stop-color:#F0A418"/>
			<stop  offset="1" style="stop-color:#F0A418"/>
		</linearGradient>
		<polygon class="st17" points="8.6,9.7 8.2,8.7 5,5 7.9,9 		"/>
	</g>
</g>
<g transform="matrix(1,0,0,1,382,353)">
	<rect class="st0" width="18" height="16"/>
	<desc>Created with Snap</desc>
	<g>
		
			<linearGradient id="SVGID_18_" gradientUnits="userSpaceOnUse" x1="-382" y1="438.5" x2="-381" y2="438.5" gradientTransform="matrix(8.235 0 0 -6.22 3150.7695 2735.5796)">
			<stop  offset="0" style="stop-color:#F0A418"/>
			<stop  offset="1" style="stop-color:#F0A418"/>
		</linearGradient>
		<polygon class="st18" points="13.2,11.2 12,9.9 5,5 11.6,10.4 		"/>
	</g>
</g>
<g transform="matrix(1,0,0,1,386.5,351.5)">
	<rect class="st0" width="11" height="11"/>
	<desc>Created with Snap</desc>
	<g>
		
			<linearGradient id="SVGID_19_" gradientUnits="userSpaceOnUse" x1="-386.5" y1="440" x2="-385.5" y2="440" gradientTransform="matrix(1.512 0 0 -1.358 589.3881 603.1989)">
			<stop  offset="0" style="stop-color:#F0A418"/>
			<stop  offset="1" style="stop-color:#F0A418"/>
		</linearGradient>
		<polygon class="st19" points="6.5,6.4 5.9,5.5 5,5 5.6,5.8 		"/>
	</g>
</g>
<g transform="matrix(1,0,0,1,388,353.5)">
	<rect class="st0" width="14" height="13"/>
	<desc>Created with Snap</desc>
	<g>
		
			<linearGradient id="SVGID_20_" gradientUnits="userSpaceOnUse" x1="-388" y1="438" x2="-387" y2="438" gradientTransform="matrix(4.422 0 0 -3.962 1720.736 1742.3369)">
			<stop  offset="0" style="stop-color:#F0A418"/>
			<stop  offset="1" style="stop-color:#F0A418"/>
		</linearGradient>
		<polygon class="st20" points="9.4,9 8.8,8.1 5,5 8.5,8.4 		"/>
	</g>
</g>
<g transform="matrix(1,0,0,1,378.5,360)">
	<rect class="st0" width="19" height="14"/>
	<desc>Created with Snap</desc>
	<g>
		
			<linearGradient id="SVGID_21_" gradientUnits="userSpaceOnUse" x1="-378.5" y1="431.5" x2="-377.5" y2="431.5" gradientTransform="matrix(9.209 0 0 -4.658 3490.6064 2017.2563)">
			<stop  offset="0" style="stop-color:#F0A418"/>
			<stop  offset="1" style="stop-color:#F0A418"/>
		</linearGradient>
		<polygon class="st21" points="14.2,9.7 12.8,8.5 5,5 12.5,9.2 		"/>
	</g>
</g>
<g transform="matrix(1,0,0,1,382.5,357.5)">
	<rect class="st0" width="11" height="11"/>
	<desc>Created with Snap</desc>
	<g>
		
			<linearGradient id="SVGID_22_" gradientUnits="userSpaceOnUse" x1="-382.5" y1="434" x2="-381.5" y2="434" gradientTransform="matrix(1.731 0 0 -1.069 667.1077 469.4806)">
			<stop  offset="0" style="stop-color:#F0A418"/>
			<stop  offset="1" style="stop-color:#F0A418"/>
		</linearGradient>
		<polygon class="st22" points="6.7,6.1 6,5.4 5,5 5.8,5.7 		"/>
	</g>
</g>
<g transform="matrix(1,0,0,1,383.5,358.5)">
	<rect class="st0" width="15" height="13"/>
	<desc>Created with Snap</desc>
	<g>
		
			<linearGradient id="SVGID_23_" gradientUnits="userSpaceOnUse" x1="-383.5" y1="433" x2="-382.5" y2="433" gradientTransform="matrix(5.057 0 0 -3.113 1944.3596 1354.4858)">
			<stop  offset="0" style="stop-color:#F0A418"/>
			<stop  offset="1" style="stop-color:#F0A418"/>
		</linearGradient>
		<polygon class="st23" points="10.1,8.1 9.3,7.4 5,5 9.1,7.7 		"/>
	</g>
</g>
<g transform="matrix(1,0,0,1,376.5,366)">
	<rect class="st0" width="19" height="12"/>
	<desc>Created with Snap</desc>
	<g>
		
			<linearGradient id="SVGID_24_" gradientUnits="userSpaceOnUse" x1="-376.5" y1="425.5" x2="-375.5" y2="425.5" gradientTransform="matrix(9.892 0 0 -2.949 3729.3376 1261.2745)">
			<stop  offset="0" style="stop-color:#F0A418"/>
			<stop  offset="1" style="stop-color:#F0A418"/>
		</linearGradient>
		<polygon class="st24" points="14.9,7.9 13.3,7.1 5,5 13.1,7.8 		"/>
	</g>
</g>
<g transform="matrix(1,0,0,1,379.5,364)">
	<rect class="st0" width="11" height="10"/>
	<desc>Created with Snap</desc>
	<g>
		
			<linearGradient id="SVGID_25_" gradientUnits="userSpaceOnUse" x1="-379.5" y1="427.5" x2="-378.5" y2="427.5" gradientTransform="matrix(1.894 0 0 -0.745 723.773 323.8596)">
			<stop  offset="0" style="stop-color:#F0A418"/>
			<stop  offset="1" style="stop-color:#F0A418"/>
		</linearGradient>
		<polygon class="st25" points="6.9,5.7 6,5.2 5,5 5.9,5.6 		"/>
	</g>
</g>
<g transform="matrix(1,0,0,1,381.5,364)">
	<rect class="st0" width="15" height="12"/>
	<desc>Created with Snap</desc>
	<g>
		
			<linearGradient id="SVGID_26_" gradientUnits="userSpaceOnUse" x1="-381.5" y1="427.5" x2="-380.5" y2="427.5" gradientTransform="matrix(5.529 0 0 -2.165 2114.3137 931.6196)">
			<stop  offset="0" style="stop-color:#F0A418"/>
			<stop  offset="1" style="stop-color:#F0A418"/>
		</linearGradient>
		<polygon class="st26" points="10.5,7.2 9.6,6.6 5,5 9.5,7 		"/>
	</g>
</g>
<g transform="matrix(1,0,0,1,375,373.5)">
	<rect class="st0" width="20" height="11"/>
	<desc>Created with Snap</desc>
	<g>
		
			<linearGradient id="SVGID_27_" gradientUnits="userSpaceOnUse" x1="-375" y1="418" x2="-374" y2="418" gradientTransform="matrix(10.259 0 0 -1.295 3852.125 546.9583)">
			<stop  offset="0" style="stop-color:#F0A418"/>
			<stop  offset="1" style="stop-color:#F0A418"/>
		</linearGradient>
		<polygon class="st27" points="15.3,6.1 13.5,5.6 5,5 13.4,6.3 		"/>
	</g>
</g>
<g transform="matrix(1,0,0,1,377.5,370)">
	<rect class="st0" width="11" height="10"/>
	<desc>Created with Snap</desc>
	<g>
		
			<linearGradient id="SVGID_28_" gradientUnits="userSpaceOnUse" x1="-377.5" y1="421.5" x2="-376.5" y2="421.5" gradientTransform="matrix(1.997 0 0 -0.398 758.8676 172.9571)">
			<stop  offset="0" style="stop-color:#F0A418"/>
			<stop  offset="1" style="stop-color:#F0A418"/>
		</linearGradient>
		<polygon class="st28" points="7,5.4 6,5 5,5 5.9,5.4 		"/>
	</g>
</g>
<g transform="matrix(1,0,0,1,379.5,370.5)">
	<rect class="st0" width="15" height="11"/>
	<desc>Created with Snap</desc>
	<g>
		
			<linearGradient id="SVGID_29_" gradientUnits="userSpaceOnUse" x1="-379.5" y1="421" x2="-378.5" y2="421" gradientTransform="matrix(5.827 0 0 -1.149 2216.3464 489.3028)">
			<stop  offset="0" style="stop-color:#F0A418"/>
			<stop  offset="1" style="stop-color:#F0A418"/>
		</linearGradient>
		<polygon class="st29" points="10.8,6.1 9.9,5.8 5,5 9.8,6.1 		"/>
	</g>
</g>
<g transform="matrix(1,0,0,1,444,371.5)">
	<rect class="st0" width="20" height="11"/>
	<desc>Created with Snap</desc>
	<g>
		
			<linearGradient id="SVGID_30_" gradientUnits="userSpaceOnUse" x1="-444" y1="420" x2="-443" y2="420" gradientTransform="matrix(10.219 0 0 -1.554 4542.2368 658.4573)">
			<stop  offset="0" style="stop-color:#F0A418"/>
			<stop  offset="1" style="stop-color:#F0A418"/>
		</linearGradient>
		<polygon class="st30" points="5,6.5 6.8,6.6 15.2,5 6.7,5.9 		"/>
	</g>
</g>
<g transform="matrix(1,0,0,1,451,375)">
	<rect class="st0" width="12" height="10"/>
	<desc>Created with Snap</desc>
	<g>
		
			<linearGradient id="SVGID_31_" gradientUnits="userSpaceOnUse" x1="-451" y1="416.5" x2="-450" y2="416.5" gradientTransform="matrix(2.034 0 0 -0.403 922.3325 173.0509)">
			<stop  offset="0" style="stop-color:#F0A418"/>
			<stop  offset="1" style="stop-color:#F0A418"/>
		</linearGradient>
		<polygon class="st31" points="5,5.3 6,5.4 7,5.1 6,5 		"/>
	</g>
</g>
<g transform="matrix(1,0,0,1,444.5,376)">
	<rect class="st0" width="15" height="10"/>
	<desc>Created with Snap</desc>
	<g>
		
			<linearGradient id="SVGID_32_" gradientUnits="userSpaceOnUse" x1="-444.5" y1="415.5" x2="-443.5" y2="415.5" gradientTransform="matrix(5.926 0 0 -0.486 2639.1047 207.176)">
			<stop  offset="0" style="stop-color:#F0A418"/>
			<stop  offset="1" style="stop-color:#F0A418"/>
		</linearGradient>
		<polygon class="st32" points="5,5.3 6,5.5 10.9,5 6,5.1 		"/>
	</g>
</g>
<g transform="matrix(1,0,0,1,443.5,364.5)">
	<rect class="st0" width="19" height="13"/>
	<desc>Created with Snap</desc>
	<g>
		
			<linearGradient id="SVGID_33_" gradientUnits="userSpaceOnUse" x1="-443.5" y1="427" x2="-442.5" y2="427" gradientTransform="matrix(9.796 0 0 -3.248 4349.5249 1393.5197)">
			<stop  offset="0" style="stop-color:#F0A418"/>
			<stop  offset="1" style="stop-color:#F0A418"/>
		</linearGradient>
		<polygon class="st33" points="5,8.2 6.8,8 14.8,5 6.6,7.4 		"/>
	</g>
</g>
<g transform="matrix(1,0,0,1,450.5,369)">
	<rect class="st0" width="11" height="10"/>
	<desc>Created with Snap</desc>
	<g>
		
			<linearGradient id="SVGID_34_" gradientUnits="userSpaceOnUse" x1="-450.5" y1="422.5" x2="-449.5" y2="422.5" gradientTransform="matrix(1.98 0 0 -0.478 896.9881 207.1935)">
			<stop  offset="0" style="stop-color:#F0A418"/>
			<stop  offset="1" style="stop-color:#F0A418"/>
		</linearGradient>
		<polygon class="st34" points="5,5.5 6,5.4 7,5 6,5 		"/>
	</g>
</g>
<g transform="matrix(1,0,0,1,444.5,369.5)">
	<rect class="st0" width="15" height="11"/>
	<desc>Created with Snap</desc>
	<g>
		
			<linearGradient id="SVGID_35_" gradientUnits="userSpaceOnUse" x1="-444.5" y1="422" x2="-443.5" y2="422" gradientTransform="matrix(5.772 0 0 -1.39 2570.6555 592.2747)">
			<stop  offset="0" style="stop-color:#F0A418"/>
			<stop  offset="1" style="stop-color:#F0A418"/>
		</linearGradient>
		<polygon class="st35" points="5,6.4 6,6.3 10.8,5 6,6 		"/>
	</g>
</g>
<g transform="matrix(1,0,0,1,440.5,358)">
	<rect class="st0" width="19" height="14"/>
	<desc>Created with Snap</desc>
	<g>
		
			<linearGradient id="SVGID_36_" gradientUnits="userSpaceOnUse" x1="-440.5" y1="433.5" x2="-439.5" y2="433.5" gradientTransform="matrix(9.062 0 0 -4.937 3996.8127 2147.6582)">
			<stop  offset="0" style="stop-color:#F0A418"/>
			<stop  offset="1" style="stop-color:#F0A418"/>
		</linearGradient>
		<polygon class="st36" points="5,9.9 6.7,9.4 14.1,5 6.4,8.8 		"/>
	</g>
</g>
<g transform="matrix(1,0,0,1,448.5,362)">
	<rect class="st0" width="11" height="10"/>
	<desc>Created with Snap</desc>
	<g>
		
			<linearGradient id="SVGID_37_" gradientUnits="userSpaceOnUse" x1="-448.5" y1="429.5" x2="-447.5" y2="429.5" gradientTransform="matrix(1.862 0 0 -0.821 840.1068 358.0305)">
			<stop  offset="0" style="stop-color:#F0A418"/>
			<stop  offset="1" style="stop-color:#F0A418"/>
		</linearGradient>
		<polygon class="st37" points="5,5.8 6,5.6 6.9,5 5.9,5.2 		"/>
	</g>
</g>
<g transform="matrix(1,0,0,1,442.5,363)">
	<rect class="st0" width="15" height="12"/>
	<desc>Created with Snap</desc>
	<g>
		
			<linearGradient id="SVGID_38_" gradientUnits="userSpaceOnUse" x1="-442.5" y1="428.5" x2="-441.5" y2="428.5" gradientTransform="matrix(5.434 0 0 -2.394 2409.5442 1032.0256)">
			<stop  offset="0" style="stop-color:#F0A418"/>
			<stop  offset="1" style="stop-color:#F0A418"/>
		</linearGradient>
		<polygon class="st38" points="5,7.4 6,7.2 10.4,5 5.9,6.8 		"/>
	</g>
</g>
<g transform="matrix(1,0,0,1,438,352)">
	<rect class="st0" width="18" height="16"/>
	<desc>Created with Snap</desc>
	<g>
		
			<linearGradient id="SVGID_39_" gradientUnits="userSpaceOnUse" x1="-438" y1="439.5" x2="-437" y2="439.5" gradientTransform="matrix(8.041 0 0 -6.47 3526.9597 2851.8)">
			<stop  offset="0" style="stop-color:#F0A418"/>
			<stop  offset="1" style="stop-color:#F0A418"/>
		</linearGradient>
		<polygon class="st39" points="5,11.5 6.6,10.6 13,5 6.2,10.1 		"/>
	</g>
</g>
<g transform="matrix(1,0,0,1,444.5,356.5)">
	<rect class="st0" width="11" height="11"/>
	<desc>Created with Snap</desc>
	<g>
		
			<linearGradient id="SVGID_40_" gradientUnits="userSpaceOnUse" x1="-444.5" y1="435" x2="-443.5" y2="435" gradientTransform="matrix(1.687 0 0 -1.14 754.8733 501.4697)">
			<stop  offset="0" style="stop-color:#F0A418"/>
			<stop  offset="1" style="stop-color:#F0A418"/>
		</linearGradient>
		<polygon class="st40" points="5,6.1 6,5.7 6.7,5 5.7,5.4 		"/>
	</g>
</g>
<g transform="matrix(1,0,0,1,440,357.5)">
	<rect class="st0" width="14" height="13"/>
	<desc>Created with Snap</desc>
	<g>
		
			<linearGradient id="SVGID_41_" gradientUnits="userSpaceOnUse" x1="-440" y1="434" x2="-439" y2="434" gradientTransform="matrix(4.921 0 0 -3.322 2170.239 1448.4092)">
			<stop  offset="0" style="stop-color:#F0A418"/>
			<stop  offset="1" style="stop-color:#F0A418"/>
		</linearGradient>
		<polygon class="st41" points="5,8.3 6,7.9 9.9,5 5.7,7.6 		"/>
	</g>
</g>
<g transform="matrix(1,0,0,1,434,347.5)">
	<rect class="st0" width="16" height="17"/>
	<desc>Created with Snap</desc>
	<g>
		
			<linearGradient id="SVGID_42_" gradientUnits="userSpaceOnUse" x1="-434" y1="444" x2="-433" y2="444" gradientTransform="matrix(6.763 0 0 -7.794 2940.1406 3469.4333)">
			<stop  offset="0" style="stop-color:#F0A418"/>
			<stop  offset="1" style="stop-color:#F0A418"/>
		</linearGradient>
		<polygon class="st42" points="5,12.8 6.4,11.7 11.8,5 5.9,11.2 		"/>
	</g>
</g>
<g transform="matrix(1,0,0,1,440.5,350.5)">
	<rect class="st0" width="11" height="11"/>
	<desc>Created with Snap</desc>
	<g>
		
			<linearGradient id="SVGID_43_" gradientUnits="userSpaceOnUse" x1="-440.5" y1="441" x2="-439.5" y2="441" gradientTransform="matrix(1.457 0 0 -1.422 646.8088 632.813)">
			<stop  offset="0" style="stop-color:#F0A418"/>
			<stop  offset="1" style="stop-color:#F0A418"/>
		</linearGradient>
		<polygon class="st43" points="5,6.4 5.9,5.8 6.5,5 5.6,5.6 		"/>
	</g>
</g>
<g transform="matrix(1,0,0,1,436,352)">
	<rect class="st0" width="14" height="14"/>
	<desc>Created with Snap</desc>
	<g>
		
			<linearGradient id="SVGID_44_" gradientUnits="userSpaceOnUse" x1="-436" y1="439.5" x2="-435" y2="439.5" gradientTransform="matrix(4.253 0 0 -4.142 1859.3073 1827.4801)">
			<stop  offset="0" style="stop-color:#F0A418"/>
			<stop  offset="1" style="stop-color:#F0A418"/>
		</linearGradient>
		<polygon class="st44" points="5,9.1 5.9,8.6 9.3,5 5.6,8.3 		"/>
	</g>
</g>
<g transform="matrix(1,0,0,1,429.5,343)">
	<rect class="st0" width="15" height="18"/>
	<desc>Created with Snap</desc>
	<g>
		
			<linearGradient id="SVGID_45_" gradientUnits="userSpaceOnUse" x1="-429.5" y1="448.5" x2="-428.5" y2="448.5" gradientTransform="matrix(5.269 0 0 -8.873 2268.0359 3988.9766)">
			<stop  offset="0" style="stop-color:#F0A418"/>
			<stop  offset="1" style="stop-color:#F0A418"/>
		</linearGradient>
		<polygon class="st45" points="5,13.9 6.2,12.5 10.3,5 5.6,12.2 		"/>
	</g>
</g>
<g transform="matrix(1,0,0,1,435.5,346.5)">
	<rect class="st0" width="11" height="11"/>
	<desc>Created with Snap</desc>
	<g>
		
			<linearGradient id="SVGID_46_" gradientUnits="userSpaceOnUse" x1="-435.5" y1="445" x2="-434.5" y2="445" gradientTransform="matrix(1.181 0 0 -1.658 519.3254 743.639)">
			<stop  offset="0" style="stop-color:#F0A418"/>
			<stop  offset="1" style="stop-color:#F0A418"/>
		</linearGradient>
		<polygon class="st46" points="5,6.7 5.8,5.9 6.2,5 5.4,5.7 		"/>
	</g>
</g>
<g transform="matrix(1,0,0,1,432.5,349)">
	<rect class="st0" width="13" height="14"/>
	<desc>Created with Snap</desc>
	<g>
		
			<linearGradient id="SVGID_47_" gradientUnits="userSpaceOnUse" x1="-432.5" y1="442.5" x2="-431.5" y2="442.5" gradientTransform="matrix(3.449 0 0 -4.833 1496.6931 2146.019)">
			<stop  offset="0" style="stop-color:#F0A418"/>
			<stop  offset="1" style="stop-color:#F0A418"/>
		</linearGradient>
		<polygon class="st47" points="5,9.8 5.8,9.1 8.4,5 5.4,8.9 		"/>
	</g>
</g>
<g transform="matrix(1,0,0,1,425.5,339.5)">
	<rect class="st0" width="13" height="19"/>
	<desc>Created with Snap</desc>
	<g>
		
			<linearGradient id="SVGID_48_" gradientUnits="userSpaceOnUse" x1="-425.5" y1="452" x2="-424.5" y2="452" gradientTransform="matrix(3.61 0 0 -9.668 1541.0553 4379.7695)">
			<stop  offset="0" style="stop-color:#F0A418"/>
			<stop  offset="1" style="stop-color:#F0A418"/>
		</linearGradient>
		<polygon class="st48" points="5,14.7 6,13.1 8.6,5 5.3,12.9 		"/>
	</g>
</g>
<g transform="matrix(1,0,0,1,431,343.5)">
	<rect class="st0" width="10" height="11"/>
	<desc>Created with Snap</desc>
	<g>
		
			<linearGradient id="SVGID_49_" gradientUnits="userSpaceOnUse" x1="-431" y1="448" x2="-430" y2="448" gradientTransform="matrix(0.868 0 0 -1.843 379.108 831.5854)">
			<stop  offset="0" style="stop-color:#F0A418"/>
			<stop  offset="1" style="stop-color:#F0A418"/>
		</linearGradient>
		<polygon class="st49" points="5,6.8 5.6,6 5.9,5 5.3,5.8 		"/>
	</g>
</g>
<g transform="matrix(1,0,0,1,428,345.5)">
	<rect class="st0" width="12" height="15"/>
	<desc>Created with Snap</desc>
	<g>
		
			<linearGradient id="SVGID_50_" gradientUnits="userSpaceOnUse" x1="-428" y1="446" x2="-427" y2="446" gradientTransform="matrix(2.536 0 0 -5.366 1090.4077 2400.9192)">
			<stop  offset="0" style="stop-color:#F0A418"/>
			<stop  offset="1" style="stop-color:#F0A418"/>
		</linearGradient>
		<polygon class="st50" points="5,10.4 5.6,9.5 7.5,5 5.3,9.4 		"/>
	</g>
</g>
<g transform="matrix(1,0,0,1,420.5,338)">
	<rect class="st0" width="11" height="20"/>
	<desc>Created with Snap</desc>
	<g>
		
			<linearGradient id="SVGID_51_" gradientUnits="userSpaceOnUse" x1="-420.5" y1="453.5" x2="-419.5" y2="453.5" gradientTransform="matrix(1.862 0 0 -10.156 787.9708 4615.8242)">
			<stop  offset="0" style="stop-color:#F0A418"/>
			<stop  offset="1" style="stop-color:#F0A418"/>
		</linearGradient>
		<polygon class="st51" points="5,15.2 5.7,13.5 6.9,5 5,13.3 		"/>
	</g>
</g>
<g transform="matrix(1,0,0,1,424,340.5)">
	<rect class="st0" width="10" height="11"/>
	<desc>Created with Snap</desc>
	<g>
		
			<linearGradient id="SVGID_52_" gradientUnits="userSpaceOnUse" x1="-424" y1="451" x2="-423" y2="451" gradientTransform="matrix(0.528 0 0 -1.967 228.8719 893.1005)">
			<stop  offset="0" style="stop-color:#F0A418"/>
			<stop  offset="1" style="stop-color:#F0A418"/>
		</linearGradient>
		<polygon class="st52" points="5,7 5.5,6 5.5,5 5.1,5.9 		"/>
	</g>
</g>
<g transform="matrix(1,0,0,1,422.5,342.5)">
	<rect class="st0" width="11" height="15"/>
	<desc>Created with Snap</desc>
	<g>
		
			<linearGradient id="SVGID_53_" gradientUnits="userSpaceOnUse" x1="-422.5" y1="449" x2="-421.5" y2="449" gradientTransform="matrix(1.543 0 0 -5.733 656.9188 2581.9836)">
			<stop  offset="0" style="stop-color:#F0A418"/>
			<stop  offset="1" style="stop-color:#F0A418"/>
		</linearGradient>
		<polygon class="st53" points="5,10.7 5.5,9.8 6.5,5 5.1,9.7 		"/>
	</g>
</g>
<g transform="matrix(1,0,0,1,418,339)">
	<rect class="st0" width="10" height="12"/>
	<desc>Created with Snap</desc>
	<g>
		
			<linearGradient id="SVGID_54_" gradientUnits="userSpaceOnUse" x1="-418" y1="452.5" x2="-417" y2="452.5" gradientTransform="matrix(0.403 0 0 -2.03 173.4539 924.59)">
			<stop  offset="0" style="stop-color:#F0A418"/>
			<stop  offset="1" style="stop-color:#F0A418"/>
		</linearGradient>
		<polygon class="st54" points="5.1,7 5.4,6 5.3,5 5,6 		"/>
	</g>
</g>
<g transform="matrix(1,0,0,1,417,341.5)">
	<rect class="st0" width="10" height="15"/>
	<desc>Created with Snap</desc>
	<g>
		
			<linearGradient id="SVGID_55_" gradientUnits="userSpaceOnUse" x1="-417" y1="450" x2="-416" y2="450" gradientTransform="matrix(0.613 0 0 -5.916 260.6222 2670.1582)">
			<stop  offset="0" style="stop-color:#F0A418"/>
			<stop  offset="1" style="stop-color:#F0A418"/>
		</linearGradient>
		<polygon class="st55" points="5.1,10.9 5.4,9.9 5.6,5 5,9.9 		"/>
	</g>
</g>
<g transform="matrix(0.6047,0,0,0.6047,350.8583,399.5343)">
	<rect x="0" y="0" class="st0" width="103" height="28"/>
	<desc>Created with Snap</desc>
	<g>
		
			<linearGradient id="SVGID_56_" gradientUnits="userSpaceOnUse" x1="-580.2188" y1="648.1986" x2="-579.2188" y2="648.1986" gradientTransform="matrix(56.4439 0 0 -11.1151 32754.8184 7218.9814)">
			<stop  offset="0" style="stop-color:#083B66"/>
			<stop  offset="1" style="stop-color:#083B66"/>
		</linearGradient>
		<path class="st56" d="M80.2,6.4c6.5,0,12.7,1,18.1,2.9c-10.3,0-32.2,1-46.3,14.1C35.4,12.1,23.9,6.8,5,9.1
			c12-6.9,34.7-4.9,46.4,5.4C58.8,9.5,69,6.4,80.2,6.4L80.2,6.4z"/>
	</g>
</g>
<g transform="matrix(0.7654,0,0,0.7654,367.5828,424.2846)">
	<rect x="0" y="0" class="st0" width="103" height="28"/>
	<desc>Created with Snap</desc>
	<g>
		
			<linearGradient id="SVGID_57_" gradientUnits="userSpaceOnUse" x1="-480.2493" y1="479.7693" x2="-479.2493" y2="479.7693" gradientTransform="matrix(71.444 0 0 -14.069 34315.9141 6764.0415)">
			<stop  offset="0" style="stop-color:#1761A0"/>
			<stop  offset="1" style="stop-color:#1761A0"/>
		</linearGradient>
		<path class="st57" d="M80.2,6.4c6.5,0,12.7,1,18.1,2.9c-10.3,0-32.2,1-46.3,14.1C35.4,12.1,23.9,6.8,5,9.1
			c12-6.9,34.7-4.9,46.4,5.4C58.8,9.5,69,6.4,80.2,6.4L80.2,6.4z"/>
	</g>
</g>
<g transform="matrix(0.1206,0,0,0.1206,597.8417,397.8068)">
	<rect x="0" y="0" class="st0" width="185" height="169"/>
	<desc>Created with Snap</desc>
	<g>
		
			<linearGradient id="SVGID_58_" gradientUnits="userSpaceOnUse" x1="-4957.228" y1="3264.4543" x2="-4956.228" y2="3264.4543" gradientTransform="matrix(21.1615 0 0 -19.19 104907.2813 62729.5859)">
			<stop  offset="0" style="stop-color:#F29898"/>
			<stop  offset="1" style="stop-color:#F29898"/>
		</linearGradient>
		<path class="st58" d="M146.4,7.2C114.7-3.5,93.5,27.7,92.8,28.8h0C92,27.7,70.7-3.5,39,7.2C6.7,18.2-12.2,62.7,27,100.1
			c0,0,55.1,46.4,65.7,64h0c10.6-17.6,65.7-64,65.7-64C197.7,62.7,178.7,18.2,146.4,7.2z"/>
	</g>
</g>
<g transform="matrix(0.6591,-0.2141,0.1541,0.4741,504.3716,363.525)">
	<path class="st0" d="M-70.5,105c50.5-1,90.5-1,141,0"/>
	
		<linearGradient id="SVGID_59_" gradientUnits="userSpaceOnUse" x1="-883.0627" y1="503.9259" x2="-882.0627" y2="503.9259" gradientTransform="matrix(90.2308 15.1906 21.0963 -33.6377 68980.2734 30429.6699)">
		<stop  offset="0" style="stop-color:#083B66"/>
		<stop  offset="1" style="stop-color:#083B66"/>
	</linearGradient>
	<path class="st59" d="M-41.7,87.8L-41.7,87.8l0.2,2.3c0,0.7-0.3,1.2-0.8,1.5c-0.6,0.3-1.1,0.3-1.7,0c-0.6-0.3-0.9-0.7-0.9-1.4l0,0
		c0-2.3,0.7-4,2.1-5l0,0c0.7-0.5,1.5-0.8,2.3-0.8l0,0l1.9,0.6c1.4,0.8,2.1,2.5,2.1,5.1c0,2.6-1,4.7-2.9,6.2l0,0
		c-1.3,1.1-2.5,1.6-3.5,1.6l0,0c-3.7,0-6.1-1.8-7.1-5.3l0,0c-0.8-2.5-1.2-4.3-1.2-5.3l0,0c0-2.3,1.1-5.6,3.4-9.9
		c2.2-4.3,3.3-7.7,3.3-10.1l0,0c0-4.9-1.3-7.4-3.8-7.4l0,0c-2.9,0-5.4,1.9-7.3,5.7l0,0c-1.4,2.8-2.6,5.8-3.7,9l0,0l-2.5,7.4
		c-0.1,0.5-0.1,1.2-0.1,2.2c0,1-0.2,2.9-0.5,5.8c-0.3,2.9-0.8,4.6-1.3,5c-0.5,0.4-1,0.5-1.5,0.3s-0.8-0.6-0.9-1.3l0,0
		c0.6-3,0.9-5.9,0.9-8.8s0.2-7.8,0.7-14.8l0,0c0.1-0.2,0.2-0.9,0.1-2.3c-0.1-1.3-0.2-2.1-0.2-2.4l0,0l0.2-15.2
		c0-6.8-1.1-12.6-3.4-17.3l0,0c-0.3-0.5-0.4-1-0.4-1.5s0.3-1.1,0.8-1.7c0.5-0.6,1.3-0.9,2.3-0.9l0,0c1.2,0,2.1,0.6,2.6,1.8l0,0
		c1.3,2.7,2.2,6,2.8,10s0.9,6.8,1,8.8c0,1.9,0,4.3,0,7.2c0,2.8-0.1,4.8-0.3,6c-0.2,1.2-0.3,2.2-0.3,2.9l0,0l-0.6,4.8
		c3.3-8.7,7.2-13.1,11.6-13.1l0,0c2.5,0,4.5,1,6.3,3.1c1.7,2.1,2.5,4.4,2.5,6.9s-1.3,6.1-3.8,10.7c-2.6,4.6-3.9,7.7-3.9,9.2l0,0
		c0,5.2,1.3,7.8,4,7.8l0,0c1.3,0,2.4-0.8,3.3-2.5l0,0c0.5-1,0.8-2,0.8-3s-0.1-1.8-0.3-2.5c-0.2-0.6-0.6-0.9-1.1-0.8l0,0
		C-41.3,86.4-41.7,86.9-41.7,87.8z M-32,44.5c0.8-0.2,1.4-0.3,1.9-0.3c0.5,0,1.2,0.2,2.1,0.5c0.9,0.4,3.1,1.5,6.8,3.3
		c3.6,1.9,6.3,3.1,8.2,3.8l0,0c0.9,0.3,1.1,0.8,0.8,1.4s-1.2,0.7-2.4,0.2s-3.8-1-7.7-1.7s-6.6-1.3-8.1-2c-1.5-0.6-2.3-1.6-2.4-3
		C-33.1,45.4-32.8,44.6-32,44.5z M-18.5,58.3L-18.5,58.3c6.2,0,9.3,2.2,9.3,6.5l0,0c0,1.5-0.5,2.9-1.5,4l0,0h0.1
		c0.7,1.7,1,3.6,1,5.5s-0.4,3.9-1.1,6l0,0c0.9,4.5,2.3,9,4.2,13.5l0,0c0.1,0.3,0.2,0.6,0.2,0.9c0,0.4-0.2,0.8-0.5,1.2
		c-0.3,0.4-0.6,0.7-0.9,0.7l0,0c-0.5,0-1.2-0.7-1.9-2.1c-0.7-1.4-1.4-3.3-1.9-5.7c-0.5-2.4-0.9-4-1.2-4.8l0,0
		c-3.3,4.7-6.5,7.1-9.6,7.1l0,0c-0.1,0-0.2,0-0.3,0l0,0c-3.3,0-6-1.1-7.9-3.2s-2.9-4.6-2.9-7.3c0-2.8,0.2-5.3,0.6-7.4
		c0.4-2.1,1-4.4,1.9-6.8c0.9-2.4,2.4-4.3,4.4-5.8l0,0C-24.4,59.1-21.7,58.3-18.5,58.3z M-11.2,65.3L-11.2,65.3
		c0-3.5-2.1-5.2-6.4-5.2l0,0c-3.2,0-5.8,1.6-7.9,4.7c-2,3.1-3,6.5-3,10.2s0.6,6.7,1.6,9.1c1.1,2.4,2.9,3.7,5.4,3.7l0,0
		c1.6,0,3.1-0.6,4.4-1.8l0,0c2.1-1.9,3.1-3.4,3.1-4.6s-0.2-2.9-0.6-5.2c-0.4-2.3-0.6-3.8-0.6-4.7s0.2-1.6,0.5-2.3l0,0
		c-0.5-0.9-0.9-1.6-1.2-1.8c-0.2-0.3-0.1-0.6,0.3-0.9c0.4-0.3,0.8-0.3,1.2,0.2l0,0h-0.1c0.5,0.7,0.9,1,1.4,1.1l0,0
		c0.3-0.1,0.5-0.2,0.7-0.2l0,0C-11.6,66.8-11.2,66-11.2,65.3z M6.4,69.5L6.4,69.5l0.1-4.4c0-3.5-0.5-5.7-1.5-6.7l0,0
		c-0.5-0.5-1.3-0.8-2.2-0.8l0,0c-1.8,0-3.6,1-5.3,3c-1.7,2-2.6,4-2.6,5.8l0,0c0,0.8,0.2,1.9,0.7,3.2c0.5,1.3,1.1,1.9,2,1.9
		s1.6-0.4,2.3-1.1S1,69,1,68.1s-0.1-1.5-0.4-1.8C0.4,66.1,0,66-0.7,66s-1-0.1-1.2-0.4C-2,65.3-2,65-1.9,64.7
		c0.1-0.3,0.4-0.5,0.8-0.5l0,0V64c0.2,0,0.7,0,1.6,0s1.5,0.3,2.1,0.8s0.8,1.5,0.8,3.1s-0.6,2.9-1.8,4s-2.6,1.7-4.3,1.8l0,0
		c-1,0-2.1-0.9-3.2-2.8s-1.7-3.4-1.7-4.5l0,0c0.1-2.5,1.2-5.1,3.4-7.8s4.5-4,6.7-4s4.1,0.9,5.6,2.8l0,0c2.4,3,3.7,7,3.9,12.1l0,0v4
		c3.3-7.9,5.3-12.2,5.9-13.1l0,0c2.7-4,5.4-6,8.3-6l0,0c1.4,0,2.6,0.9,3.8,2.7s1.6,3.4,1.6,4.8l0,0c0,3.1-0.3,5.4-0.9,6.9l0,0
		c-1.9,4.7-2.9,9.5-2.9,14.4l0,0c0,5.9,1,10.8,3,14.8l0,0c0.8,0,1.7-0.3,2.5-0.8c0.9-0.5,1.5-0.7,1.8-0.4c0.3,0.2,0.4,0.5,0.4,0.8
		c0,0.3-0.2,0.6-0.5,0.8l0,0c-1.9,1.1-3.4,1.7-4.6,1.8s-2.3-1.1-3.3-3.3l0,0c-0.1-0.3-0.4-1-0.9-2c-0.5-1-0.8-1.8-1-2.4
		c-0.2-0.6-0.5-1.4-0.9-2.3l0,0c-0.7-1.9-1-3.4-1-4.6c0-1.2,0-2.1,0-2.7l0,0c0-7.1,0.8-12.5,2.4-16.2l0,0c1-2.3,1.5-4,1.4-4.9l0,0
		c0-2.5-0.3-3.8-1-3.8l0,0c-2.3,0-4.3,1.6-6.2,4.8l0,0c-1.4,2.3-2.7,4.8-3.9,7.3l0,0c-2.2,4.9-4.4,12.6-6.6,23.3l0,0
		C9.4,93.8,9.1,94,8.4,94c-0.6,0.1-1.2,0-1.8-0.3c-0.6-0.3-0.8-0.6-0.8-1l0,0c0.4-4.3,0.6-8.8,0.6-13.3S6.4,71.5,6.4,69.5z
		 M63.5,87.8L63.5,87.8l0.2,2.3c0,0.7-0.3,1.2-0.9,1.5c-0.6,0.3-1.1,0.3-1.7,0c-0.6-0.3-0.9-0.7-0.9-1.4l0,0c0-2.3,0.7-4,2.1-5l0,0
		c0.7-0.5,1.5-0.8,2.3-0.8l0,0l1.9,0.6c1.4,0.8,2.1,2.5,2.1,5.1c0,2.6-1,4.7-2.9,6.2l0,0c-1.3,1.1-2.5,1.6-3.5,1.6l0,0
		c-3.7,0-6.1-1.8-7.1-5.3l0,0C54.4,90,54,88.3,54,87.3l0,0c0-2.3,1.1-5.6,3.3-9.9c2.2-4.3,3.4-7.7,3.4-10.1l0,0
		c0-4.9-1.3-7.4-3.8-7.4l0,0c-2.9,0-5.4,1.9-7.3,5.7l0,0c-1.4,2.8-2.6,5.8-3.7,9l0,0l-2.5,7.4c-0.1,0.5-0.1,1.2-0.1,2.2
		s-0.2,2.9-0.5,5.8c-0.3,2.9-0.8,4.6-1.3,5s-1,0.5-1.5,0.3s-0.8-0.6-0.9-1.3l0,0c0.6-3,0.9-5.9,0.9-8.8s0.2-7.8,0.7-14.8l0,0
		c0.1-0.2,0.2-0.9,0-2.3c-0.1-1.3-0.2-2.1-0.2-2.4l0,0l0.2-15.2c0-6.8-1.1-12.6-3.4-17.3l0,0c-0.3-0.5-0.4-1-0.4-1.6
		c0-0.5,0.3-1.1,0.8-1.7s1.3-0.9,2.3-0.9l0,0c1.2,0,2.1,0.6,2.6,1.8l0,0c1.3,2.7,2.2,6.1,2.8,10s0.9,6.8,1,8.8c0,1.9,0,4.3,0,7.2
		c0,2.8-0.1,4.8-0.3,6c-0.2,1.2-0.3,2.2-0.3,2.9l0,0l-0.6,4.8c3.3-8.7,7.2-13.1,11.6-13.1l0,0c2.5,0,4.5,1,6.3,3.1
		c1.7,2.1,2.5,4.4,2.5,6.9s-1.3,6.1-3.8,10.7c-2.6,4.6-3.8,7.7-3.8,9.2l0,0c0,5.2,1.3,7.8,4,7.8l0,0c1.3,0,2.4-0.8,3.3-2.5l0,0
		c0.5-1,0.8-2,0.8-3S66,87.7,65.8,87c-0.2-0.6-0.6-0.9-1.1-0.8l0,0C63.9,86.4,63.5,86.9,63.5,87.8z"/>
	<polygon points="0,0 0,0 0,0 	"/>
</g>
<g transform="matrix(0.2747,0,0,0.2747,563,384)">
	<path class="st0" d="M-192.1,215.4c172.1-1,212.1-1,384.2,0"/>
	
		<linearGradient id="SVGID_60_" gradientUnits="userSpaceOnUse" x1="-2049.5085" y1="1483.4365" x2="-2048.5085" y2="1483.4365" gradientTransform="matrix(94.2679 0 0 -34.4968 193005.7031 51301.2148)">
		<stop  offset="0" style="stop-color:#EC4C4C"/>
		<stop  offset="1" style="stop-color:#EC4C4C"/>
	</linearGradient>
	<path class="st60" d="M-107,113.8h0.3c-0.3,0.8-0.7,1.6-1.3,2.3l0,0l-1.7,2c-0.5,0.7-1,1.4-1.3,2.1c-0.4,0.7-0.5,1.6-0.3,2.6l0,0
		c-0.1,0-0.3,0-0.5,0c-0.2,0-0.4-0.1-0.5-0.1l0,0c-1,0-1.8,0.2-2.4,0.7c-0.6,0.5-1.3,0.9-2.2,1.2l0,0c-0.1-0.4-0.3-0.8-0.5-1.1
		c-0.2-0.4-0.5-0.6-0.9-0.7l0,0c-1.6,0.3-3.1,0.6-4.7,0.7c-1.6,0.2-3.1,0.4-4.7,0.6l0,0c-0.7,0.1-1.4,0.3-2.2,0.5
		c-0.7,0.2-1.5,0.4-2.2,0.6l0,0c-0.4,0.1-0.8,0.2-1.3,0.1c-0.5,0-0.9,0-1.4,0.1l0,0c-1.6,0.1-3.3,0.2-5.1,0.3
		c-1.8,0.2-3.4,0.7-4.9,1.5l0,0c-0.7-0.1-1.3-0.2-2.1-0.3c-0.7-0.1-1.4-0.1-2.2-0.1l0,0c-1.6,0-3.3,0.1-5.1,0.4
		c-1.9,0.3-3.5,0.9-4.9,1.7l0,0c-0.3-0.1-0.7-0.2-1-0.3c-0.4-0.1-0.8-0.1-1.2-0.1l0,0c-0.1,0-0.2,0-0.3,0c-0.1,0-0.2,0.1-0.3,0.1
		l0,0c-0.1,0.6,0,1.2,0.3,1.7c0.2,0.6,0.6,1,1.2,1.3l0,0c-0.3,0.7-0.4,1.5-0.4,2.3l0,0c0,1.1,0.1,2.2,0.2,3.3
		c0.2,1.1,0.2,2.2,0.2,3.3l0,0c0,1.2-0.2,2.2-0.5,2.9l0,0c0.6,1.9,1,4,1,6.3l0,0c0,0.8,0,1.5-0.1,2.3c-0.1,0.7-0.1,1.5-0.1,2.4l0,0
		c0,0.7,0.3,1.3,0.8,1.7c0.5,0.4,0.8,1,0.8,1.7l0,0c0,0.3-0.1,0.5-0.2,0.8l0,0c0.9-0.2,1.8-0.5,2.6-0.8s1.7-0.5,2.6-0.5l0,0
		c0.5,0,1,0.1,1.5,0.3c0.5,0.2,0.9,0.5,1.3,0.8l0,0c-0.1,0.3-0.1,0.7-0.1,1.1c0,0.4-0.1,0.8-0.1,1.2l0,0c0,0.7,0,1.4,0.1,2
		c0,0.6,0.1,1.3,0.1,2l0,0c-0.5,0.9-1.1,1.7-1.8,2.4c-0.7,0.7-1.1,1.6-1.4,2.7l0,0c-1,0-1.8,0.2-2.6,0.6c-0.7,0.4-1.4,0.9-2.1,1.4
		c-0.7,0.5-1.3,0.9-1.9,1.4c-0.7,0.4-1.4,0.6-2.2,0.6l0,0c-1,0-1.7-0.1-2.1-0.4c-0.4-0.3-0.7-0.6-0.9-0.9c-0.2-0.3-0.4-0.6-0.5-0.9
		c-0.2-0.3-0.5-0.4-1-0.3l0,0c-0.1-0.8-0.4-1.6-0.8-2.4c-0.4-0.8-0.8-1.5-1.2-2.2c-0.4-0.7-0.9-1.4-1.3-2.2
		c-0.4-0.7-0.7-1.5-0.9-2.3l0,0c-0.4-1.7-0.6-3.5-0.5-5.3c0.1-1.8-0.2-3.6-0.9-5.3l0,0c0.1-0.9,0.2-1.8,0.3-2.8
		c0.1-0.9,0.1-1.9,0.1-2.8l0,0c0-1.8,0-3.6-0.1-5.4c-0.1-1.8-0.2-3.6-0.3-5.5l0,0c-0.5-0.6-0.7-1.3-0.8-2c-0.1-0.7-0.2-1.5-0.2-2.2
		l0,0c-0.2-0.2-0.4-0.4-0.6-0.6c-0.2-0.2-0.4-0.5-0.4-0.8l0,0c-0.5-0.1-0.9-0.2-1.2-0.2l0,0c-0.9,0-1.7,0.2-2.3,0.6
		c-0.6,0.4-1.2,0.6-1.7,0.6l0,0c-0.5,0-1-0.1-1.5-0.2c-0.5-0.1-0.9-0.2-1.4-0.2l0,0c-0.4,0-0.6,0.1-0.6,0.3c0,0.2-0.2,0.3-0.4,0.4
		l0,0c-0.2,0.1-0.7,0.3-1.4,0.4c-0.7,0.1-1.5,0.2-2.4,0.3c-0.9,0.1-1.7,0.2-2.5,0.2c-0.8,0.1-1.3,0.1-1.6,0.1l0,0
		c-1,0-1.8-0.2-2.4-0.6c-0.6-0.4-1.2-0.9-2-1.4l0,0c0.1-0.4,0.2-0.7,0.2-0.8l0,0c0-0.7-0.2-1.2-0.6-1.6c-0.4-0.4-0.6-0.8-0.6-1.1
		l0,0c0-0.7,0.3-1.3,0.8-1.7c0.6-0.4,0.9-1,0.9-1.9l0,0c1.5-0.7,3-1.1,4.6-1.5c1.6-0.3,3.2-0.6,4.8-0.8c1.6-0.2,3.2-0.4,4.8-0.7
		c1.6-0.3,3.2-0.7,4.7-1.3l0,0c0.5,0.1,0.9,0.1,1.3,0.2c0.4,0,0.9,0.1,1.3,0l0,0c2,0,3.9-0.2,5.8-0.6c1.9-0.4,3.9-0.6,5.9-0.6l0,0
		c0.5,0,1,0,1.6,0.1c0.5,0.1,1,0.2,1.6,0.3l0,0c2.6-0.4,5.2-0.8,7.8-1.3c2.6-0.5,5.2-0.8,8-1.2l0,0c1.3-0.1,2.6-0.3,3.9-0.3
		c1.3-0.1,2.6-0.2,3.9-0.4l0,0c0.5-0.1,0.8-0.2,1-0.3c0.2-0.2,0.3-0.5,0.3-1l0,0c0.6,0.3,1.2,0.4,2,0.4l0,0c1.1,0,2.2-0.2,3.2-0.6
		c1-0.4,2.1-0.6,3.2-0.6l0,0c0.3,0,0.5,0,0.7,0c0.2,0,0.4,0.1,0.6,0.1l0,0c0.5,0,0.7-0.2,0.7-0.6c0-0.4,0.3-0.7,0.9-0.8l0,0
		c0.5-0.1,1.1-0.2,2-0.3c0.8-0.1,1.7-0.2,2.7-0.3c0.9-0.1,1.8-0.2,2.6-0.4c0.8-0.2,1.4-0.4,1.8-0.7l0,0l0.7-1.1
		c1.2,0.1,2,0.6,2.6,1.5c0.6,0.9,0.9,2,0.9,3.1l0,0c0.3,0.3,0.6,0.4,1.1,0.3C-107.9,113.8-107.4,113.8-107,113.8L-107,113.8z
		 M4.5,159.6L4.5,159.6c-0.1,1-0.5,1.7-1,2.2c-0.6,0.5-1.2,1-1.9,1.5l0,0c-0.3-0.1-0.6-0.1-0.9-0.1c-0.3,0-0.6-0.1-0.9-0.1l0,0
		c-2-0.1-3.9,0.2-5.7,0.8c-1.8,0.6-3.6,1-5.5,1.3l0,0c-0.7,0.1-1.3,0.2-1.8,0.1c-0.6,0-1.1,0-1.7,0.2l0,0c-2.1,0.3-4.3,0.6-6.6,0.8
		s-4.7,0.4-7,0.7c-2.3,0.3-4.6,0.7-6.9,1.1c-2.2,0.4-4.3,1-6.3,1.8l0,0c-0.2-0.1-0.4-0.3-0.6-0.4c-0.2-0.2-0.4-0.2-0.7-0.2l0,0
		c-0.7,0-1.3,0.1-1.9,0.3c-0.6,0.2-1.2,0.3-1.8,0.2l0,0c-0.6,0.4-1.3,0.7-2.1,0.8c-0.7,0.2-1.5,0.3-2.2,0.4
		c-0.8,0.1-1.5,0.2-2.2,0.4c-0.7,0.2-1.4,0.6-2,1.1l0,0c-0.5-0.3-1.2-0.4-1.9-0.4c-0.7,0-1.3-0.3-1.5-0.7l0,0
		c-1.5,0.7-3.1,1.2-4.7,1.4c-1.7,0.2-3.3,0.3-5,0.2l0,0c-1.1-0.1-2.4-0.2-3.8-0.5c-1.4-0.3-2.9-0.6-4.3-1.1c-1.4-0.5-2.8-1.1-4-1.8
		c-1.2-0.7-2.2-1.5-2.8-2.5l0,0c-0.5-0.6-0.8-1.4-1-2.1c-0.2-0.8-0.7-1.4-1.4-1.8l0,0c0.2-1.5,0.4-3,0.7-4.4
		c0.3-1.4,0.5-2.9,0.8-4.4l0,0c1.3-1.1,2.5-2.3,3.7-3.5c1.2-1.2,2.3-2.5,3.3-3.9l0,0c1.2-0.6,2.4-1.3,3.5-2.1
		c1.1-0.8,2.2-1.7,3.2-2.6c1.1-0.9,2.1-1.7,3.2-2.6c1.1-0.8,2.2-1.6,3.5-2.3l0,0c0.2-0.5,0.5-0.8,0.8-1.1c0.4-0.3,0.7-0.6,1.1-0.9
		c0.4-0.3,0.7-0.6,1.1-1c0.3-0.4,0.6-0.8,0.7-1.3l0,0c2.3-1.4,4.3-3.1,6-5.2c1.7-2.1,2.8-4.4,3.3-7l0,0c-1.1-0.9-2.4-1.5-3.8-1.8
		s-2.8-0.5-4.3-0.6l0,0c-1.3-0.1-2.7-0.1-4.1,0c-1.4,0.1-2.8,0-4.2-0.1l0,0c-1.4,0.5-2.9,0.8-4.5,0.9c-1.5,0.1-3,0.2-4.5,0.3
		c-1.5,0.1-3,0.3-4.4,0.6c-1.5,0.3-2.9,0.8-4.3,1.6l0,0c-0.3,0-0.5,0-0.7-0.1s-0.5-0.1-0.7-0.1l0,0c-2.1-0.1-4,0.3-5.9,1.2
		c-1.8,0.9-3.6,1.7-5.4,2.6l0,0c-0.1,0.3-0.2,0.5-0.2,0.6l0,0c0,0.4,0.1,0.8,0.2,1.1c0.2,0.4,0.3,0.7,0.3,1.1l0,0
		c-0.1,0.1-0.1,0.1-0.1,0.2s0,0.1-0.1,0.2l0,0c-0.1,0.3-0.1,0.6-0.2,0.9s-0.2,0.6-0.3,0.9l0,0c-0.7,2.1-1.1,4.1-1.2,6.2l0,0
		c-0.1,1.7-0.1,3.3,0,5c0.1,1.6,0.1,3.3,0,5l0,0c-0.1,2.1-0.5,4-1,5.9l0,0c0.3,1.6,0.6,3.2,0.9,4.9c0.3,1.7,0.6,3.4,1,5.1
		c0.4,1.7,0.9,3.3,1.4,4.9c0.6,1.6,1.3,3.1,2.2,4.5l0,0c-0.1,0.1,0,0.2,0.1,0.3c0.1,0.1,0.3,0.1,0.4,0.1l0,0h0.8
		c0.3,0,0.5,0.1,0.4,0.4l0,0c0.1,0.2,0.2,0.4,0.3,0.5c0.1,0.2,0.2,0.3,0.4,0.4l0,0c0.1,0.2,0.1,0.5,0,0.8l0,0
		c-0.1,1.3-0.4,2.5-1,3.6c-0.6,1.1-0.9,2.3-1.1,3.6l0,0c-0.8,0.2-1.5,0.3-2.2,0.3l0,0c-1.1-0.1-2.1-0.4-2.9-0.9
		c-0.8-0.6-1.6-1.2-2.3-2c-0.7-0.8-1.4-1.6-2-2.4c-0.7-0.8-1.4-1.5-2.2-2.1l0,0c-0.5-1.8-0.9-3.8-1.3-6c-0.4-2.2-1.1-4.1-2.1-5.7
		l0,0c0.3-0.6,0.4-1.3,0.4-2.2l0,0c0.1-1.3,0-2.6-0.3-3.9c-0.3-1.3-0.4-2.6-0.2-3.9l0,0c0-0.7,0.1-1.4,0.2-2.2
		c0.2-0.7,0.3-1.4,0.3-2.1l0,0c0.1-1.1,0-2.2-0.3-3.2s-0.4-2.1-0.3-3.2l0,0c0.1-0.5,0.2-1,0.3-1.5c0.2-0.5,0.4-0.9,0.7-1.3l0,0
		c-0.3-0.8-0.4-1.5-0.3-2.3l0,0c0.1-1.1,0.2-2.1,0.4-3.1c0.2-1,0.3-2,0.4-2.9l0,0c0-0.5,0-1-0.1-1.5c-0.1-0.5-0.2-1-0.3-1.4l0,0
		l-0.9-0.3c-0.4,0-0.8,0.1-1.1,0.3c-0.4,0.2-0.7,0.4-0.9,0.7c-0.3,0.3-0.5,0.5-0.7,0.6c-0.2,0.2-0.4,0.2-0.6,0.2l0,0
		c-0.1,0-0.3,0-0.4-0.1c-0.2,0-0.3,0-0.4,0l0,0c-0.1,0-0.4,0.1-0.7,0.4c-0.4,0.3-0.8,0.5-1.3,0.8c-0.5,0.3-1,0.6-1.4,0.9
		c-0.5,0.3-0.8,0.5-1.1,0.5l0,0c-0.7-0.1-1.3-0.4-1.7-0.7c-0.4-0.4-0.8-0.7-1.2-1.1s-0.7-0.7-1.1-1c-0.4-0.3-0.9-0.4-1.5-0.3l0,0
		c-0.2-0.4-0.3-0.8-0.3-1.3c0-0.5,0-0.9,0-1.4l0,0v-1.6c0.5-0.8,1.1-1.5,1.8-2.1c0.7-0.6,1.5-1,2.4-1.4l0,0l2.5-1.2
		c0.8-0.4,1.6-0.9,2.3-1.5l0,0h0.9c1.2,0.1,2.2-0.2,3.1-0.7c0.9-0.5,1.7-1.1,2.5-1.8c0.8-0.7,1.6-1.4,2.4-2.1
		c0.8-0.7,1.7-1.3,2.7-1.7l0,0c0.7,0.3,1.5,0.6,2.3,0.8c0.8,0.2,1.6,0.4,2.4,0.4l0,0c0.8,0,1.7-0.1,2.6-0.4s1.6-0.7,2.2-1.5l0,0
		c0.3,0.1,0.6,0.2,0.8,0.2c0.2,0,0.5,0,0.8,0l0,0c1,0.1,1.9-0.1,2.9-0.4c1-0.4,1.9-0.8,2.8-1.3l0,0c1.3,0.1,2.6,0,3.9-0.2
		c1.3-0.2,2.5-0.5,3.8-0.7c1.3-0.3,2.5-0.5,3.8-0.7c1.3-0.2,2.6-0.3,3.9-0.2l0,0c2.1,0.1,4.3-0.1,6.3-0.6c2.1-0.5,4.2-0.6,6.4-0.5
		l0,0c1.5,0.1,3,0.2,4.4,0.3c1.5,0.2,2.9,0.2,4.4,0.1l0,0c0.8,0.4,1.6,0.7,2.3,1c0.7,0.3,1.5,0.4,2.6,0.2l0,0c2.1,1.8,4,3.8,5.7,6.2
		l0,0v1.7c-0.1,1.5-0.3,3-0.8,4.4c-0.5,1.4-1,2.8-1.6,4.3c-0.6,1.4-1.3,2.8-2,4.1c-0.7,1.3-1.4,2.6-2.1,3.9l0,0
		c-4.2,3.8-8.5,7.7-12.7,11.4c-4.2,3.8-8.6,7.4-13.1,10.9l0,0c-0.1,0.6-0.3,1.2-0.5,1.8c-0.2,0.5-0.4,1.1-0.4,1.7l0,0
		c0,0.3,0,0.6,0.1,0.8l0,0c0.5,0.1,0.9,0.4,1.2,0.7c0.4,0.4,0.5,0.8,0.4,1.4l0,0h0.9c0.3,0,0.5,0.1,0.5,0.4l0,0l1.6,0.1
		c2.5,0.1,4.9,0.1,7.4-0.2c2.5-0.3,5-0.6,7.5-0.9c2.5-0.3,5-0.6,7.5-0.9c2.5-0.3,4.9-0.5,7.4-0.5l0,0c0.6-0.2,1.2-0.4,1.9-0.5
		c0.6-0.1,1.2-0.4,1.8-0.8l0,0h0.3c0.5,0,0.8,0.1,1,0.4c0.2,0.3,0.6,0.4,1,0.5l0,0c0.3,0,0.7-0.1,1-0.2c0.4-0.1,0.7-0.2,1.1-0.3l0,0
		c0.9-0.3,1.9-0.4,2.9-0.5c1-0.1,2-0.2,3-0.3l0,0c3.8-0.3,7.5-0.5,11.2-0.6c3.7-0.1,7.4-0.6,11.1-1.4l0,0c0.3,0.5,0.8,0.8,1.4,0.9
		c0.6,0.2,1.2,0.3,1.8,0.5c0.7,0.2,1.3,0.3,1.8,0.5C3.9,158.6,4.3,159,4.5,159.6z M1.9,161.4L1.9,161.4c-0.3,0.6-0.7,1.1-1,1.6
		c-0.4,0.5-0.7,1-1,1.5l0,0c-0.5,0.3-0.9,0.4-1.5,0.5c-0.5,0.1-1,0.1-1.6,0.1c-0.5,0-1,0.1-1.4,0.2c-0.4,0.1-0.7,0.3-0.9,0.5l0,0
		c-0.5-0.1-0.9-0.3-1.2-0.6c-0.3-0.3-0.8-0.4-1.4-0.4l0,0c-0.3,0-0.6,0-0.8,0.1l0,0c-1.1-0.9-2.1-1.9-3.1-3c-1-1.1-1.9-2.2-2.8-3.2
		l0,0c-0.2-1.3-0.4-2.5-0.6-3.7c-0.2-1.1-0.5-2.3-0.8-3.6l0,0c-0.1-0.5-0.3-1.1-0.5-1.7s-0.4-1.1-0.4-1.7l0,0
		c-0.1-0.6-0.2-1.2-0.2-1.8l0,0v-1.8c0-1.9,0.1-3.8,0.2-5.6c0.1-1.9,0.2-3.7,0.2-5.6l0,0c0-1.7-0.1-3.5-0.4-5.3
		c-0.3-1.9-0.8-3.6-1.6-5.1l0,0l-0.1-0.4c0-0.5,0.1-1,0.2-1.4c0.1-0.4,0.2-0.8,0.2-1.4l0,0c0-0.6-0.2-1.1-0.7-1.4l0,0
		c0.1-0.5,0.4-0.9,0.8-1.1c0.4-0.2,0.6-0.7,0.6-1.3l0,0c0-0.3,0-0.6-0.1-0.8l0,0c0.5-0.3,1-0.5,1.6-0.7c0.5-0.2,1-0.3,1.6-0.3l0,0
		c0.8,0,1.5,0.2,2.3,0.5c0.7,0.4,1.4,0.7,2.1,1.1l0,0c1.5,2.9,2.4,6.1,2.6,9.6c0.3,3.5,0.4,7,0.4,10.5c0,3.6,0.2,7,0.5,10.4
		c0.3,3.4,1.3,6.4,2.8,9.1l0,0h0.2c0.3,0.1,0.6-0.1,0.7-0.3c0.1-0.3,0.4-0.4,0.7-0.4l0,0c0.1,0,0.2,0,0.2,0.1c0,0,0.1,0,0.3,0l0,0
		c0.5,1.2,1.1,2.4,1.8,3.5C0.2,159.4,1,160.4,1.9,161.4z M-12.7,96.5L-12.7,96.5c-0.1,1-0.3,1.7-0.7,2.3c-0.4,0.5-0.6,1.2-0.6,2l0,0
		c0,0.5,0.1,1,0.3,1.4l0,0c-0.5,0.2-0.7,0.6-0.7,1.1l0,0h-0.4c-0.5,0-1,0.1-1.5,0.4c-0.5,0.3-1,0.4-1.5,0.4l0,0
		c-1.7,0-3.1-0.4-4.3-1.3c-1.2-0.9-2.4-1.6-3.8-2.2l0,0c-0.3-0.1-0.7-0.2-1-0.2l0,0h-0.9c-0.5,0-0.8-0.1-1-0.2l0,0
		c-0.1-0.1-0.1-0.3-0.1-0.5s-0.1-0.4-0.3-0.5l0,0c-0.1-0.1-0.4-0.2-0.9-0.3c-0.5-0.2-1.1-0.3-1.7-0.5c-0.6-0.2-1.2-0.4-1.8-0.6
		s-1-0.4-1.2-0.5l0,0c-0.3-0.2-0.6-0.5-0.8-1c-0.2-0.5-0.6-0.6-1-0.3l0,0c0.1-0.2,0.1-0.4,0.1-0.6l0,0c0-0.3-0.1-0.7-0.3-1
		c-0.2-0.4-0.4-0.5-0.8-0.5l0,0c-0.1,0-0.3,0-0.4,0.1c-0.2,0.1-0.3,0.1-0.5,0.1l0,0c-0.1,0-0.3-0.1-0.4-0.2l0,0
		c-0.5-0.7-1.1-1.3-1.7-2l0,0c-1-1.1-2.1-2.1-3.2-2.9s-2-2-2.5-3.5l0,0c-1.2-0.6-2.2-1.3-3-2.2l0,0l-2.5-2.5
		c-0.8-0.8-1.8-1.6-2.7-2.3c-1-0.7-2.2-1.2-3.6-1.4l0,0v-0.7c0-0.8,0.1-1.7,0.4-2.4c0.3-0.8,0.4-1.6,0.4-2.3l0,0
		c0-0.4,0-0.7-0.1-0.9l0,0c0.9-0.3,1.5-0.9,1.8-1.7s0.4-1.6,0.4-2.5l0,0c0.7-0.7,1.5-1.1,2.5-1.3c1-0.1,2-0.2,2.8-0.2l0,0h1
		c0.3,0,0.7,0,1,0.1l0,0c1.6,0.9,2.8,2,3.8,3.4c0.9,1.4,1.7,2.9,2.2,4.6l0,0c0.9,0.7,1.7,1.6,2.4,2.5c0.7,1,1.6,1.7,2.9,2.1l0,0
		c0.5,1.3,1.2,2.5,2.1,3.5c0.8,1,1.8,2,2.7,2.9c1,0.9,1.9,1.8,2.9,2.8c0.9,0.9,1.8,2,2.6,3.1l0,0c1.1,0.5,2.3,0.9,3.6,1.3
		c1.3,0.4,2.6,0.9,3.9,1.4c1.3,0.5,2.5,1.1,3.6,1.8C-14.4,94.7-13.5,95.5-12.7,96.5z M75.4,112.4L75.4,112.4c-0.1,0.8-0.3,1.4-0.5,2
		c-0.2,0.6-0.3,1.3-0.1,2.2l0,0c-0.6,0.1-1.1,0.3-1.5,0.6c-0.4,0.4-0.7,0.8-0.9,1.2c-0.2,0.5-0.5,0.9-0.7,1.4
		c-0.2,0.5-0.5,0.9-0.8,1.3l0,0c0.5,2.3,0.8,4.7,0.9,7.1c0.1,2.4,0.2,4.8,0.5,7.1l0,0c0.3,3,0.8,5.9,1.5,8.8c0.7,2.9,1,5.8,1,8.8
		l0,0c0,0.9,0,1.8,0,2.5c0,0.8,0,1.6,0,2.4l0,0c0,0.5,0,1.1,0,1.6c0,0.6,0,1.1,0,1.6l0,0c0,1.9-0.2,3.8-0.7,5.7
		c-0.5,1.9-0.9,3.8-1.1,5.7l0,0c-0.8,0.7-1.4,1.5-2,2.3c-0.6,0.8-1.1,1.6-1.7,2.3c-0.6,0.7-1.3,1.4-2,1.9c-0.8,0.6-1.8,0.9-2.9,1.1
		l0,0c-0.2,0.7-0.6,1.1-1.1,1.5c-0.6,0.3-1,0.8-1.4,1.4l0,0h-0.2c-1.6,0-3-0.2-4.2-0.7c-1.2-0.5-2.3-1-3.3-1.6c-1-0.6-2-1.2-3.1-1.8
		c-1-0.7-2.3-1.2-3.6-1.6l0,0c-1.8-1.5-3.5-3.1-5-4.9c-1.5-1.8-3.2-3.4-5.1-4.8l0,0c-0.5-1.3-1.1-2.4-1.8-3.2
		c-0.8-0.8-1.5-1.8-2.2-2.9l0,0c-0.3-0.5-0.6-0.9-0.7-1.3c-0.2-0.4-0.4-0.9-0.6-1.4l0,0c-0.2-0.5-0.5-0.9-0.9-1.1
		c-0.4-0.2-0.8-0.4-1.1-0.7l0,0c-0.5-2-1.3-3.9-2.2-5.6c-1-1.7-2.1-3.3-3.4-4.9l0,0c-0.4,0.7-0.7,1.5-0.9,2.3
		c-0.2,0.8-0.4,1.6-0.6,2.4c-0.2,0.8-0.4,1.6-0.7,2.4c-0.3,0.8-0.7,1.5-1.1,2.2l0,0v0.3c0,0.3,0.1,0.5,0.4,0.6s0.4,0.3,0.4,0.6l0,0
		c0,0.1,0,0.1-0.1,0.2c0,0.1-0.1,0.1,0,0.2l0,0c-0.3,0.3-0.6,0.6-0.7,1c-0.2,0.4-0.5,0.6-1,0.7l0,0c0.1,0.3,0.1,0.6,0.1,1l0,0v0.9
		c0,1.9-0.2,3.8-0.6,5.7c-0.4,1.9-0.6,3.8-0.6,5.8l0,0v1.3c0,0.5,0,0.9,0.1,1.3l0,0c0.1,0.4,0.3,0.8,0.6,1.2
		c0.3,0.4,0.4,0.7,0.4,1.1l0,0c0,0.5-0.2,0.9-0.6,1.3l0,0c0.5,0.3,1,0.7,1.6,1.1c0.6,0.4,1.1,0.8,1.6,1.3c0.5,0.5,0.9,1,1.2,1.6
		c0.3,0.6,0.5,1.2,0.5,1.8l0,0c0,1.1-0.4,1.9-1.1,2.3c-0.7,0.5-1.6,0.8-2.6,1.1c-1,0.3-2,0.5-3.1,0.7c-1.1,0.2-2,0.6-2.7,1.2l0,0
		h-0.3c-0.8,0-1.4-0.2-1.8-0.7c-0.4-0.5-1-0.7-1.8-0.7l0,0c-1.2-2-2.1-4.3-2.5-6.8c-0.5-2.5-0.7-4.9-0.7-7.2l0,0
		c0-2.8,0.2-5.6,0.7-8.4c0.5-2.8,1.1-5.6,1.8-8.3c0.7-2.7,1.4-5.4,2.3-8.2c0.8-2.7,1.6-5.4,2.3-8.2l0,0l0.1-0.3
		c0-0.3-0.1-0.6-0.2-0.7c-0.2-0.1-0.2-0.3-0.3-0.6l0,0c0-0.1,0-0.2,0.1-0.2l0,0c0.2-0.7,0.4-1.3,0.6-1.9c0.2-0.6,0.4-1.2,0.5-1.9
		l0,0c0.4-1.8,0.7-3.7,0.8-5.6c0.2-1.9,0.3-3.8,0.3-5.7c0-1.9,0.1-3.8,0.2-5.7c0.1-1.9,0.3-3.8,0.6-5.7l0,0c0.5-0.5,1-1.1,1.5-1.7
		c0.5-0.6,1-1.1,1.8-1.6l0,0c1.3,0.1,2.6,0.3,3.9,0.6c1.3,0.3,2.5,0.8,3.7,1.6l0,0c0.8,2.8,1.3,5.6,1.6,8.4c0.3,2.8,0.8,5.6,1.5,8.4
		l0,0v0.3c0,0.3,0.2,0.5,0.5,0.4c0.4,0,0.6,0.1,0.8,0.3l0,0c-0.1,0.2-0.2,0.4-0.3,0.7c0,0.3,0,0.5,0,0.8l0,0v1.7
		c0.1,0.5,0.3,1.1,0.5,1.7c0.2,0.6,0.6,0.9,1.3,1.1l0,0c0.3,2.1,0.8,4,1.5,5.8c0.6,1.8,1.4,3.5,2.2,5.1c0.8,1.6,1.8,3.2,2.7,4.8
		c1,1.6,2,3.3,3,5l0,0c1.6,1.2,3,2.7,4.2,4.3c1.2,1.6,2.4,3.1,3.6,4.6c1.2,1.5,2.6,2.8,4.1,3.9c1.5,1.1,3.5,1.8,6,2.1l0,0
		c0.3-0.3,0.6-0.6,0.7-1.1l0,0l0.5-1.4c0.2-0.5,0.4-0.9,0.6-1.2c0.2-0.4,0.6-0.6,1-0.8l0,0c0.1-1.8,0.3-3.7,0.4-5.6
		c0.2-1.9,0.6-3.7,1.2-5.4l0,0c-0.3-0.6-0.5-1.3-0.5-2.2l0,0c0-0.7,0-1.3,0.2-1.8c0.1-0.6,0.1-1.2,0.1-1.8l0,0c0-1.2-0.3-2.3-0.8-3
		l0,0c0-0.5,0-0.9,0.1-1.4c0.1-0.5,0.3-1,0.6-1.4l0,0c-0.5-1.3-0.9-2.7-1.2-4.1c-0.3-1.4-0.4-2.9-0.4-4.4l0,0c0-0.8,0.1-1.7,0.3-2.6
		l0,0c-0.4-1-0.7-2.1-0.8-3.4l0,0l-0.4-4c-0.1-1.4-0.3-2.6-0.6-3.8c-0.3-1.2-0.8-2.1-1.5-2.8l0,0c0.4-0.6,0.6-1.3,0.6-2.1l0,0
		c0-1.3-0.2-2.5-0.6-3.7c-0.4-1.2-0.6-2.4-0.6-3.7l0,0c0-0.9,0.2-1.8,0.6-2.7l0,0c1.4,0.1,2.9,0.2,4.3,0.4c1.4,0.2,2.8,0.3,4.2,0.3
		l0,0c0.4,0.5,0.8,0.9,1.4,1.3c0.5,0.3,1.1,0.6,1.7,0.9c0.6,0.3,1.2,0.6,1.7,0.9C74.6,111.4,75.1,111.8,75.4,112.4z M146.1,131
		L146.1,131c-0.3,0.7-0.5,1.3-0.8,1.9c-0.3,0.6-0.5,1.2-0.6,1.9l0,0c-0.5,0.3-1,0.6-1.5,0.7c-0.6,0.2-1.1,0.3-1.7,0.5
		c-0.6,0.2-1.1,0.4-1.6,0.6c-0.5,0.2-0.9,0.6-1.1,1l0,0c-0.2,1-0.3,1.9-0.3,2.7l0,0c0,1.1,0.2,2.1,0.6,2.8l0,0
		c-0.2,0.6-0.3,1.2-0.4,1.9c-0.1,0.6-0.1,1.3-0.1,1.9l0,0c0,2.2,0.3,4.3,0.8,6.4s0.8,4.2,0.9,6.4l0,0c0,0.3,0,0.7-0.1,1.1
		c-0.1,0.4-0.1,0.8-0.1,1.1l0,0c0,1.4,0.5,2.3,1.6,2.7l0,0c-0.2,0.3-0.3,0.6-0.3,0.9l0,0c0,0.5,0.1,1,0.2,1.4
		c0.1,0.4,0.2,0.8,0.1,1.3l0,0c0.3,0.7,0.7,1.2,1,1.7c0.3,0.5,0.6,1.1,0.7,1.8l0,0c-0.5,0.9-1,1.7-1.7,2.5c-0.6,0.7-1.1,1.7-1.4,2.8
		l0,0c-0.3-0.1-0.6-0.1-0.9-0.1l0,0c-0.5,0-0.8,0.1-1.1,0.3c-0.3,0.2-0.5,0.4-0.6,0.7s-0.3,0.6-0.5,0.9c-0.2,0.3-0.5,0.5-0.8,0.6
		l0,0H136c-0.3,0.1-0.6,0.1-0.8,0c-0.2-0.1-0.4-0.1-0.6-0.1l0,0c-0.1,0-0.4,0.1-0.8,0.2l0,0c-0.5-0.6-0.9-1.4-1.1-2.3
		c-0.2-0.9-0.3-1.7-0.3-2.6l0,0c0-0.9,0.1-1.7,0.4-2.4l0,0c-0.7-0.6-1.2-1.5-1.3-2.6c-0.2-1.2-0.3-2.1-0.5-2.9l0,0
		c-0.5-2.4-1.1-4.8-1.8-7c-0.7-2.3-1.1-4.6-1.2-7l0,0c-0.1-0.9-0.1-1.8-0.1-2.6l0,0v-5.1c0-0.8,0-1.7,0.1-2.4l0,0
		c0-0.6,0.1-1.1,0.2-1.7c0.1-0.6,0.1-1.1,0.1-1.7l0,0c0-0.8-0.3-1.5-0.8-2.3l0,0c-4.6,0.2-9,1-13.1,2.5c-4.1,1.5-8.2,3.2-12.3,5.2
		l0,0c-0.3,1.5-0.4,3-0.5,4.4s-0.1,2.9-0.1,4.4l0,0v4.3c0,1.6,0.1,3,0.2,4.1l0,0c0.3,1.9,1.3,3.3,2.9,4.4c1.6,1,3.2,1.8,4.8,2.3l0,0
		c-0.1,1-0.3,1.8-0.6,2.5c-0.3,0.7-0.7,1.3-1.2,1.9c-0.5,0.6-1,1.1-1.6,1.6c-0.6,0.5-1.2,1.1-1.8,1.8l0,0c-0.5-0.3-1-0.6-1.6-0.7
		c-0.5-0.1-1.1-0.2-1.7-0.3c-0.6,0-1.2-0.1-1.8-0.2c-0.6-0.1-1.2-0.2-1.8-0.4l0,0l-2.2-2.9c-0.7-1-1.5-1.9-2.3-2.9l0,0v-0.9
		c0-1.8-0.3-3.5-1-5.1c-0.7-1.6-1.1-3.3-1.5-5l0,0c0.2-0.6,0.3-1.2,0.4-1.8c0.1-0.6,0.1-1.2,0.1-1.9l0,0c0-1.3,0-2.6-0.2-3.8
		c-0.1-1.2-0.1-2.5,0.1-3.7l0,0h-0.5c-0.6,0-1.2,0.1-1.9,0.4s-1.3,0.6-1.9,1c-0.6,0.4-1.2,0.7-1.8,1c-0.6,0.3-1,0.4-1.4,0.4l0,0
		c-0.2,0-0.4,0-0.6-0.1c-0.2-0.1-0.4-0.1-0.7-0.1l0,0c-0.3,0-0.7,0.1-1.2,0.4c-0.5,0.3-1,0.5-1.5,0.8c-0.6,0.3-1.1,0.6-1.7,0.8
		c-0.6,0.3-1.2,0.4-1.8,0.4l0,0c-0.9,0-1.8-0.4-2.7-1.2l0,0c-0.1-0.5-0.2-1-0.2-1.5c0-0.5,0.1-0.9,0.1-1.5l0,0
		c0-0.5-0.1-1.1-0.3-1.7l0,0c0.5-0.8,1.1-1.5,1.8-2c0.7-0.5,1.5-0.9,2.3-1.4c0.8-0.4,1.6-0.8,2.5-1.3c0.8-0.4,1.6-1,2.1-1.7l0,0h0.6
		c0.9,0,1.7-0.2,2.5-0.6c0.7-0.4,1.6-0.6,2.6-0.5l0,0c0.3-0.1,0.6-0.6,0.7-1.5l0,0l0.4,0.1c1.4,0,2.7-0.5,3.8-1.5l0,0
		c0.7-4,1.3-8.1,1.8-12.2s0.7-8.2,0.7-12.3l0,0c0-0.4-0.1-0.8-0.4-1.2l0,0c-0.1-0.5-0.2-1-0.2-1.5l0,0v-1.5c0-0.7,0-1.5,0.1-2.2
		c0.1-0.8,0.2-1.6,0.5-2.3l0,0c0.7-0.4,1.3-0.6,2.1-0.6l0,0c0.8,0,1.7,0.1,2.5,0.3c0.8,0.2,1.6,0.4,2.4,0.5l0,0
		c0.6,0.6,1,1.2,1.3,1.9s0.5,1.4,0.5,2.2c0.1,0.7,0.1,1.5,0.1,2.2c0,0.8-0.1,1.5-0.1,2.2l0,0c0,1.4,0.2,2.8,0.5,4.2
		c0.3,1.4,0.5,2.7,0.5,4l0,0c0,0.3-0.1,0.6-0.3,0.7c-0.2,0.2-0.3,0.6-0.3,1.3l0,0c0,0.7,0.1,1.5,0.2,2.3c0.1,0.8,0.2,1.6,0.2,2.3
		l0,0c0,0.9-0.1,1.9-0.4,2.8c-0.3,1-0.5,1.9-0.7,2.8l0,0c3.9-0.3,7.9-0.8,12-1.5c4.1-0.6,8-1.7,11.7-3.1l0,0
		c0.1-0.1,0.1-0.3,0.1-0.6l0,0c0-0.4,0-0.8-0.1-1.2s-0.1-0.8-0.1-1.3l0,0c0-0.8,0.3-1.4,0.8-1.8l0,0c-0.3-1.8-0.5-3.6-0.7-5.5
		c-0.1-1.8-0.2-3.6-0.2-5.5l0,0v-5.6c0-1.8,0-3.6-0.1-5.5l0,0c0.5-0.3,1.1-0.5,1.7-0.5l0,0c0.7,0,1.4,0.2,2,0.5
		c0.6,0.4,1.4,0.5,2.2,0.5l0,0c0.6,0,1.1-0.1,1.5-0.3l0,0c0.7,0.6,1.2,1.5,1.5,2.5c0.3,1,0.5,2.1,0.7,3.2s0.4,2.2,0.6,3.3
		c0.2,1.1,0.7,1.9,1.4,2.6l0,0l0.1,0.3c0,0.3-0.1,0.5-0.4,0.6c-0.3,0.1-0.4,0.4-0.4,0.8l0,0v0.4c0.3,1,0.5,2.1,0.6,3.2
		c0.1,1.1,0.3,2.2,0.4,3.4c0.1,1.1,0.2,2.2,0.4,3.3c0.2,1.1,0.6,2.1,1.1,3l0,0c0.3-0.1,0.8-0.1,1.3-0.1l0,0c1.3,0,2.3,0.4,3.1,1.3
		C144.8,129.2,145.5,130.1,146.1,131z"/>
	<polygon points="0,0 0,0 0,0 	"/>
</g>
<g>
	<polygon class="st61" points="0,0 0,0 0,0 	"/>
</g>
<g>
	<polygon class="st62" points="0,0 0,0 0,0 	"/>
</g>
</svg>
